{"title":"Kirpaan The Sword of Honour (2014) - 1CD - DVDRip - x264 - Punja","uid":10891140,"size":739751276,"categoryP":"video","categoryS":"movies","magnet":"?xt=urn:btih:c7b406cae05315201825dae1ff392e48011b8ca9&amp;dn=Kirpaan+The+Sword+of+Honour+%282014%29+-+1CD+-+DVDRip+-+x264+-+Punja&amp;tr=udp%3A%2F%2Ftracker.openbittorrent.com%3A80&amp;tr=udp%3A%2F%2Fopen.demonii.com%3A1337&amp;tr=udp%3A%2F%2Ftracker.coppersurfer.tk%3A6969&amp;tr=udp%3A%2F%2Fexodus.desync.com%3A6969","seeders":2,"leechers":0,"uploader":"inovai","files":4,"time":1409119972,"description":"Cover:\n &lt;a href=&quot;\nhttp://forum.primetimeshow.in/viewtopic.php?f=7&amp;t=602&quot; rel=&quot;nofollow&quot; target=&quot;_NEW&quot;&gt;\nhttp://forum.primetimeshow.in/viewtopic.php?f=7&amp;t=602&lt;/a&gt;\n\nGENRE: Action | Drama | Romance\n\nScreenshots:\n &lt;a href=&quot;\nhttp://img.primetimeshow.in/share.php?id=7184_53FD58A6&quot; rel=&quot;nofollow&quot; target=&quot;_NEW&quot;&gt;\nhttp://img.primetimeshow.in/share.php?id=7184_53FD58A6&lt;/a&gt;\n &lt;a href=&quot;\nhttp://img.primetimeshow.in/share.php?id=B593_53FD58A6&quot; rel=&quot;nofollow&quot; target=&quot;_NEW&quot;&gt;\nhttp://img.primetimeshow.in/share.php?id=B593_53FD58A6&lt;/a&gt;\n &lt;a href=&quot;\nhttp://img.primetimeshow.in/share.php?id=145F_53FD58A6&quot; rel=&quot;nofollow&quot; target=&quot;_NEW&quot;&gt;\nhttp://img.primetimeshow.in/share.php?id=145F_53FD58A6&lt;/a&gt;\n &lt;a href=&quot;\nhttp://img.primetimeshow.in/share.php?id=17F5_53FD58A6&quot; rel=&quot;nofollow&quot; target=&quot;_NEW&quot;&gt;\nhttp://img.primetimeshow.in/share.php?id=17F5_53FD58A6&lt;/a&gt;\n &lt;a href=&quot;\nhttp://img.primetimeshow.in/share.php?id=C2B1_53FD58A6&quot; rel=&quot;nofollow&quot; target=&quot;_NEW&quot;&gt;\nhttp://img.primetimeshow.in/share.php?id=C2B1_53FD58A6&lt;/a&gt;\n\nGeneral\nUnique ID : 251029206869303859235488407067027104076 (0xBCDA7775E2A3780993748CD30A9CE14C)\nComplete name : Kirpaan The Sword of Honour (2014) - 1CD - DVDRip - x264 - Punjabi - MP3 - Mafiaking - [D3Si MaNiaCs].mkv\nFormat : Matroska\nFormat version : Version 4 / Version 2\nFile size : 702 MiB\nDuration : 2h 17mn\nOverall bit rate : 712 Kbps\nMovie name : Kirpaan The Sword of Honour (2014) - 1CD - DVDRip - x264 - Punjabi - MP3 - Mafiaking - [D3Si MaNiaCs]\nEncoded date : UTC 2014-07-18 13:22:24\nWriting application : mkvmerge v7.0.0 ('Where We Going') 32bit built on Jun 9 2014 15:08:34\nWriting library : libebml v1.3.0 + libmatroska v1.4.1\n\n\nVideo\nID : 1\nFormat : AVC\nFormat/Info : Advanced Video Codec\nFormat profile : &lt;a class=&quot;__cf_email__&quot; href=&quot;/cdn-cgi/l/email-protection&quot; data-cfemail=&quot;266e4f414e666a150816&quot;&gt;[email&amp;#160;protected]&lt;/a&gt;&lt;script cf-hash='f9e31' type=&quot;text/javascript&quot;&gt;\n/* &lt;![CDATA[ */!function(){try{var t=&quot;currentScript&quot;in document?document.currentScript:function(){for(var t=document.getElementsByTagName(&quot;script&quot;),e=t.length;e--;)if(t[e].getAttribute(&quot;cf-hash&quot;))return t[e]}();if(t&amp;&amp;t.previousSibling){var e,r,n,i,c=t.previousSibling,a=c.getAttribute(&quot;data-cfemail&quot;);if(a){for(e=&quot;&quot;,r=parseInt(a.substr(0,2),16),n=2;a.length-n;n+=2)i=parseInt(a.substr(n,2),16)^r,e+=String.fromCharCode(i);e=document.createTextNode(e),c.parentNode.replaceChild(e,c)}}}catch(u){}}();/* ]]&gt; */&lt;/script&gt;\nFormat settings, CABAC : Yes\nFormat settings, ReFrames : 4 frames\nCodec ID : V_MPEG4/ISO/AVC\nDuration : 2h 17mn\nBit rate : 630 Kbps\nWidth : 640 pixels\nHeight : 272 pixels\nDisplay aspect ratio : 2.35:1\nFrame rate mode : Constant\nFrame rate : 29.970 fps\nColor space : YUV\nChroma subsampling : 4:2:0\nBit depth : 8 bits\nScan type : Progressive\nBits/(Pixel*Frame) : 0.121\nStream size : 609 MiB (87%)\nTitle : Mafiaking\nLanguage : Panjabi\nDefault : Yes\nForced : No\n\n\nAudio\nID : 2\nFormat : MPEG Audio\nFormat version : Version 1\nFormat profile : Layer 3\nMode : Joint stereo\nMode extension : MS Stereo\nCodec ID : A_MPEG/L3\nCodec ID/Hint : MP3\nDuration : 2h 17mn\nBit rate mode : Constant\nBit rate : 80.0 Kbps\nChannel(s) : 2 channels\nSampling rate : 32.0 KHz\nCompression mode : Lossy\nStream size : 78.8 MiB (11%)\nTitle : Mafiaking\nWriting library : LAME3.99r\nLanguage : Panjabi\nDefault : Yes\nForced : No\n\nSAMPLE WITH IN TORRENT\n\nThanks to Mafiaking - [D3Si MaNiaCs]!!\n\nSeedn ENjoy!!","torrent":{"xt":"urn:btih:c7b406cae05315201825dae1ff392e48011b8ca9","amp;dn":"Kirpaan+The+Sword+of+Honour+%282014%29+-+1CD+-+DVDRip+-+x264+-+Punja","amp;tr":["udp%3A%2F%2Ftracker.openbittorrent.com%3A80","udp%3A%2F%2Fopen.demonii.com%3A1337","udp%3A%2F%2Ftracker.coppersurfer.tk%3A6969","udp%3A%2F%2Fexodus.desync.com%3A6969"],"infoHash":"c7b406cae05315201825dae1ff392e48011b8ca9","infoHashBuffer":{"type":"Buffer","data":[199,180,6,202,224,83,21,32,24,37,218,225,255,57,46,72,1,27,140,169]},"announce":[],"urlList":[]}}